<svg width="16" height="16" viewBox="0 0 16 16" fill="none" xmlns="http://www.w3.org/2000/svg">
<path d="M10.4746 5.52459C10.5684 5.61837 10.6211 5.74555 10.6211 5.87816C10.6211 6.01076 10.5684 6.13794 10.4746 6.23172L6.232 10.4743C6.18557 10.5208 6.13044 10.5576 6.06977 10.5827C6.00911 10.6079 5.94408 10.6208 5.87842 10.6208C5.81275 10.6208 5.74773 10.6078 5.68706 10.5827C5.6264 10.5576 5.57128 10.5207 5.52485 10.4743C5.47842 10.4279 5.44159 10.3728 5.41646 10.3121C5.39133 10.2514 5.3784 10.1864 5.3784 10.1207C5.37841 10.0551 5.39134 9.99004 5.41648 9.92937C5.44161 9.86871 5.47844 9.81359 5.52488 9.76716L9.7675 5.52459C9.8613 5.43086 9.98847 5.37821 10.1211 5.37821C10.2537 5.37821 10.3808 5.43086 10.4746 5.52459V5.52459ZM8.70669 10.8283L6.93894 12.5961C6.46893 13.0592 5.83488 13.3177 5.17504 13.3153C4.51521 13.3129 3.88309 13.0497 3.41651 12.5831C2.94993 12.1165 2.68673 11.4844 2.68429 10.8246C2.68186 10.1647 2.94038 9.53067 3.4035 9.06066L5.17125 7.2929C5.26503 7.19913 5.31772 7.07194 5.31772 6.93931C5.31772 6.80669 5.26503 6.6795 5.17125 6.58572C5.07747 6.49194 4.95028 6.43925 4.81766 6.43925C4.68503 6.43925 4.55784 6.49194 4.46406 6.58572L2.69631 8.35347C2.03993 9.00985 1.67117 9.90009 1.67117 10.8284C1.67116 11.7566 2.03991 12.6469 2.69628 13.3032C3.35266 13.9596 4.2429 14.3284 5.17117 14.3284C6.09943 14.3284 6.98968 13.9597 7.64606 13.3033L9.41388 11.5355C9.46031 11.489 9.49714 11.4339 9.52226 11.3732C9.54739 11.3126 9.56032 11.2475 9.56032 11.1819C9.56032 11.1162 9.54738 11.0512 9.52225 10.9905C9.49711 10.9299 9.46028 10.8747 9.41385 10.8283C9.36741 10.7819 9.31229 10.7451 9.25162 10.7199C9.19095 10.6948 9.12593 10.6819 9.06026 10.6819C8.9946 10.6819 8.92957 10.6948 8.86891 10.7199C8.80824 10.7451 8.75312 10.7819 8.70669 10.8283ZM13.3033 2.69628C12.6469 2.03993 11.7566 1.6712 10.8284 1.6712C9.90013 1.6712 9.0099 2.03993 8.3535 2.69628L6.58575 4.46403C6.53932 4.51046 6.50249 4.56558 6.47736 4.62625C6.45223 4.68691 6.4393 4.75193 6.4393 4.81759C6.4393 4.88325 6.45223 4.94827 6.47736 5.00894C6.50249 5.0696 6.53932 5.12472 6.58575 5.17115C6.63218 5.21759 6.6873 5.25442 6.74797 5.27954C6.80863 5.30467 6.87365 5.31761 6.93931 5.31761C7.00498 5.31761 7.07 5.30467 7.13066 5.27954C7.19133 5.25442 7.24645 5.21759 7.29288 5.17115L9.06063 3.4034C9.53043 2.93926 10.1648 2.67987 10.8252 2.68187C11.4856 2.68387 12.1184 2.9471 12.5854 3.41407C13.0524 3.88105 13.3156 4.51384 13.3176 5.17425C13.3196 5.83465 13.0603 6.46903 12.5961 6.93884L10.8283 8.70666C10.7345 8.80043 10.6819 8.92762 10.6819 9.06024C10.6819 9.19286 10.7346 9.32004 10.8283 9.41381C10.9221 9.50758 11.0493 9.56026 11.1819 9.56025C11.3145 9.56025 11.4417 9.50756 11.5355 9.41378L13.3033 7.64603C13.9586 6.98913 14.3267 6.09908 14.3267 5.17115C14.3267 4.24323 13.9586 3.35318 13.3033 2.69628V2.69628Z" fill="#486681"/>
</svg>
